<?xml version="1.0" encoding="utf-8"?>
<!-- Generator: Adobe Illustrator 23.0.5, SVG Export Plug-In . SVG Version: 6.00 Build 0)  -->
<svg version="1.1" id="Layer_1" xmlns="http://www.w3.org/2000/svg" xmlns:xlink="http://www.w3.org/1999/xlink" x="0px" y="0px"
	 viewBox="0 0 698 698" style="enable-background:new 0 0 698 698;" xml:space="preserve">
<style type="text/css">
	.Drop_x0020_Shadow{fill:none;}
	.st0{opacity:0.5;}
	.st1{fill:url(#SVGID_1_);}
	.st2{fill:#F5F5F5;}
	.st3{display:none;}
	.st4{display:inline;fill:#38D39F;}
	.st5{display:inline;fill:#333333;}
	.st6{display:inline;opacity:0.1;enable-background:new    ;}
	.st7{display:inline;fill:#FDB797;}
	.st8{fill:#ADDAEC;stroke:#000000;stroke-width:0.25;stroke-miterlimit:1;}
	.st9{opacity:0.17;fill:#FFFFFF;stroke:#FFFFFF;stroke-width:0.25;stroke-miterlimit:1;}
	.st10{fill:none;}
	.st11{fill:url(#XMLID_3_);}
	.st12{fill:url(#XMLID_4_);}
	.st13{fill:url(#XMLID_5_);}
	.st14{fill:url(#XMLID_6_);}
	.st15{fill:#929497;}
	.st16{fill:url(#XMLID_7_);}
	.st17{fill:url(#XMLID_8_);}
	.st18{fill:url(#XMLID_9_);}
	.st19{fill:#624C32;stroke:#000000;stroke-width:0.25;stroke-miterlimit:1;}
	.st20{opacity:0.44;fill:#FFFFFF;stroke:#FFFFFF;stroke-width:0.25;stroke-miterlimit:1;}
	.st21{opacity:0.75;fill:#FFFFFF;stroke:#FFFFFF;stroke-width:0.25;stroke-miterlimit:1;}
	.st22{display:none;fill:#E6E6E6;stroke:#FFFFFF;stroke-width:0.25;stroke-miterlimit:1;}
	.st23{opacity:0.73;}
	.st24{fill:#FFFFFF;}
</style>
<title>profile pic</title>
<g class="st0">
	
		<linearGradient id="SVGID_1_" gradientUnits="userSpaceOnUse" x1="349" y1="1.3386" x2="349" y2="699.3386" gradientTransform="matrix(1 0 0 -1 0 699.3386)">
		<stop  offset="0" style="stop-color:#808080;stop-opacity:0.25"/>
		<stop  offset="0.54" style="stop-color:#808080;stop-opacity:0.12"/>
		<stop  offset="1" style="stop-color:#808080;stop-opacity:0.1"/>
	</linearGradient>
	<circle class="st1" cx="349" cy="349" r="349"/>
</g>
<circle class="st2" cx="349.7" cy="346.8" r="341.6"/>
<g class="st3">
	<path class="st4" d="M350,689.8c66.8,0.1,132.1-19.4,187.8-56.2c-12.6-68.8-60.5-72.7-60.5-72.7H213.1c0,0-45.2,3.7-59.3,67
		C211.2,668.3,279.8,689.9,350,689.8z"/>
	<circle class="st5" cx="346.4" cy="339.6" r="164.9"/>
	<path class="st6" d="M293.1,476.9h105.7l0,0v84.5c0,29.2-23.6,52.8-52.8,52.8l0,0c-29.2,0-52.8-23.7-52.8-52.8c0,0,0,0,0,0
		L293.1,476.9L293.1,476.9L293.1,476.9z"/>
	<path class="st7" d="M296.5,473h99c1.9,0,3.4,1.5,3.4,3.4l0,0v81.2c0,29.2-23.6,52.8-52.8,52.8c0,0,0,0,0,0l0,0
		c-29.2,0-52.8-23.7-52.8-52.8c0,0,0,0,0,0v-81.2C293.2,474.5,294.7,473,296.5,473z"/>
	<path class="st6" d="M293.3,516.8c34.1,12.7,71.5,12.8,105.7,0.3v-13H293.3V516.8z"/>
	<circle class="st7" cx="346.4" cy="372.4" r="151.5"/>
	<path class="st6" d="M238.5,234.7c0,0,63.8,129.6,243.9,54.3l-41.9-65.7l-74.3-26.7L238.5,234.7z"/>
	<path class="st5" d="M238.5,232.8c0,0,63.8,129.6,243.9,54.3l-41.9-65.7l-74.3-26.7L238.5,232.8z"/>
	<path class="st5" d="M237.9,224c4.3-13.3,11.7-25.4,21.7-35.3c29.8-29.5,78.6-35.7,103.7-69.2c6,9.3,1.4,23.6-9,27.6
		c24-0.2,51.8-2.3,65.4-22c6.8,15.9,3.9,34.4-7.6,47.4c21.3,1,44,15.4,45.3,36.6c0.9,14.2-8,27.6-19.6,35.7s-25.7,11.9-39.6,14.9
		C357.9,268.7,211.5,306.1,237.9,224z"/>
	<ellipse class="st7" cx="194.9" cy="372.3" rx="14.1" ry="26.4"/>
	<ellipse class="st7" cx="497.8" cy="372.3" rx="14.1" ry="26.4"/>
</g>
<g>
	<path class="st8" d="M675.5,423.3C645.3,577.7,509.2,694.1,346,694.1c-170.8,0-311.8-127.5-333.1-292.5
		c62.3-1.7,109.5-0.1,143,31.7c22.9,21.7,97.5,13.6,117.3-11.1c11.6-14.5,50.3-36.1,60.3-12.1c8,19.3,21.8,10.3,41.4,6.2
		c27.4-5.8,71.3,33,74.9,8.2c1.8-12.6,25.5-0.2,38.2,1.3c7.4,0.9,15-0.7,22.3,1.1c19.5,4.7,36.1-25.6,46.2-23.1
		C609.6,417.5,673.5,461.9,675.5,423.3z"/>
	<path class="st9" d="M49.9,610.1c0,0,95.7,109,275.4,75.1c0,0,81-17.7,44.2-57.4c0,0-97.2-134-299-66.3
		C70.6,561.5,24.9,574.8,49.9,610.1z"/>
	<g>
	</g>
	<g>
		<polyline id="XMLID_1_" class="st10" points="76.4,-560.8 1246,-602 1246,870.9 76.4,912.1 		"/>
		
			<radialGradient id="XMLID_3_" cx="844.6316" cy="-301.2837" r="444.5496" gradientTransform="matrix(0.9555 -0.2951 0.138 0.4467 -414.41 642.1077)" gradientUnits="userSpaceOnUse">
			<stop  offset="0.2217" style="stop-color:#8BC53F"/>
			<stop  offset="0.4468" style="stop-color:#6FA43F"/>
			<stop  offset="0.6832" style="stop-color:#55863F"/>
			<stop  offset="0.7412" style="stop-color:#488A41"/>
			<stop  offset="1" style="stop-color:#109C49"/>
		</radialGradient>
		<path id="XMLID_3648_" class="st11" d="M649.4,150.7c-67.3-67.2-176.7-65.8-253.3,7C357,89.1,334.3,24.9,333.9,23.9
			c0.2,1.1,12.1,72.8,47.7,149c-13.9,15.8-45.6,79-51.3,89.5c-6.7,12.5-14.8,24.5-24.2,35.7c-30-54.1-72.9-106-132.9-131.9
			C16.7,98.6-44.2,253,54.3,351.3c67.3,67.2,176.7,65.8,253.3-7c39.1,68.7,61.8,147.6,62.2,148.6c-0.2-1.1-12.1-87.5-47.7-163.7
			c13.9-15.8,45.6-79,51.3-89.5c6.7-12.5,14.9-24.5,24.2-35.7c30,54.1,72.9,106,132.9,131.9C687,403.4,747.9,249,649.4,150.7z
			 M132.1,363.7C20.2,316.2-4.9,156,134.5,180.9C196.6,192,250,252.1,290.2,315.4C245.2,359.6,182.7,385.2,132.1,363.7z
			 M569.1,321.1C507,310,453.6,249.9,413.4,186.6c45-44.2,107.5-69.8,158.1-48.3C683.5,185.8,708.6,345.9,569.1,321.1z"/>
		
			<radialGradient id="XMLID_4_" cx="1893.4821" cy="-1783.6974" r="116.4105" gradientTransform="matrix(0.6783 0.2549 -0.2089 0.7035 -1387.0796 1004.8614)" gradientUnits="userSpaceOnUse">
			<stop  offset="0" style="stop-color:#8BC53F"/>
			<stop  offset="1" style="stop-color:#53843F"/>
		</radialGradient>
		<path id="XMLID_3647_" class="st12" d="M296.9,152.1c-49.3,19.3-32.5,69-27.5,81.3c0.1-39.8,18.5-60,18.5-60
			c-16.1,26.9-15.7,49.8-14.2,60.6C323.8,197.5,296.9,152.1,296.9,152.1z"/>
		
			<radialGradient id="XMLID_5_" cx="1964.1765" cy="-1845.2546" r="88.1811" gradientTransform="matrix(0.948 0.3182 -0.3182 0.948 -1983.3804 1227.1866)" gradientUnits="userSpaceOnUse">
			<stop  offset="0" style="stop-color:#8BC53F"/>
			<stop  offset="1" style="stop-color:#53843F"/>
		</radialGradient>
		<path id="XMLID_3646_" class="st13" d="M469,15.4c-46,35.4-15.6,79.4-7.1,90.1c-10.3-39.7,3.5-65.8,3.5-65.8
			c-9.6,32.1-3.2,54.7,1.2,65C508.8,51.8,469,15.4,469,15.4z"/>
		
			<radialGradient id="XMLID_6_" cx="1825.0316" cy="-1546.2368" r="178.0036" gradientTransform="matrix(0.9427 0.3335 -0.3335 0.9427 -1999.5964 1189.3545)" gradientUnits="userSpaceOnUse">
			<stop  offset="0" style="stop-color:#8BC53F"/>
			<stop  offset="1" style="stop-color:#53843F"/>
		</radialGradient>
		<path id="XMLID_3645_" class="st14" d="M76.8,263.5c104.6-49.4,155,44.7,166.1,69.4c-61-54.5-119.8-53.8-119.8-53.8
			c65.7,12.1,100,44.1,114.2,61.3C105.1,367.2,76.8,263.5,76.8,263.5z"/>
		<path id="XMLID_3644_" class="st15" d="M397.5,203.9c-3.8,4.6-7.4,9.3-10.8,14.1l-5.1-45.2l0,0l0,0
			C386.5,183.2,391.7,193.6,397.5,203.9z"/>
		<radialGradient id="XMLID_7_" cx="398.2906" cy="231.2108" r="124.3779" gradientUnits="userSpaceOnUse">
			<stop  offset="0" style="stop-color:#8BC53F"/>
			<stop  offset="1" style="stop-color:#53843F"/>
		</radialGradient>
		<path id="XMLID_3643_" class="st16" d="M364.9,346.5c70.2-27.4,48.2-93.4,41.4-109.7c-1.5,53.3-28.1,80.8-28.1,80.8
			c23.6-36.5,23.8-67.1,22-81.5C328.5,286.8,364.9,346.5,364.9,346.5z"/>
		<radialGradient id="XMLID_8_" cx="534.4031" cy="342.6557" r="92.0742" gradientUnits="userSpaceOnUse">
			<stop  offset="0" style="stop-color:#8BC53F"/>
			<stop  offset="1" style="stop-color:#53843F"/>
		</radialGradient>
		<path id="XMLID_49_" class="st17" d="M535.2,432.5c46-35.4,15.6-79.4,7.1-90.1c10.3,39.7-3.5,65.8-3.5,65.8
			c9.6-32.1,3.2-54.7-1.2-65C495.4,396.1,535.2,432.5,535.2,432.5z"/>
		
			<radialGradient id="XMLID_9_" cx="295.7098" cy="152.8448" r="176.8832" gradientTransform="matrix(0.8143 0.5805 -0.5805 0.8143 370.3507 -151.4793)" gradientUnits="userSpaceOnUse">
			<stop  offset="0" style="stop-color:#8BC53F"/>
			<stop  offset="1" style="stop-color:#53843F"/>
		</radialGradient>
		<path id="XMLID_48_" class="st18" d="M617.8,292.9c-114.1-18.6-102.3-124.7-97.5-151.4c19.3,79.5,68.2,112.3,68.2,112.3
			c-47.2-47.2-57.3-93-59.3-115.3C653.3,191.6,617.8,292.9,617.8,292.9z"/>
		<polygon id="XMLID_47_" class="st15" points="307.5,344.2 281.9,323.2 290.2,315.4 		"/>
	</g>
	<g>
		<g>
			<path class="st19" d="M139.8,577.1c-11.7-4.8-19.7-27.2-25.1-37.2c-3.7-6.8-27.7-42.3-19.3-48.6c4.8,0.4,7.2,0.5,11.9,0.9
				c1.4,0.1,4.4,0.1,5,1.9c4.1,11.2,7.8,26,13.7,37.7c7.7,15.4,19.1,30.8,27.5,45.1c0.5,0.9,0,1.1-0.8,1c-0.7-0.1-1.1-0.1-1.8-0.1
				C146.4,577.6,144.2,577.4,139.8,577.1z"/>
			<path class="st19" d="M199.4,581c-12-5.9-22.5-29.4-31.1-39.5c-6.6-7.5-14.9-18.6-22.3-20.8c-1.9-0.6,3.2,11.1,4.2,13.1
				c7.1,15.5,16.8,30.2,24.1,44.9c0.6,1.3-1.3,0.8-2.1,0.8c-3.4-0.2-5-0.3-8.4-0.6c-11.2-4.5-18.2-27.4-22.8-36.9
				c-3.4-7-25.1-42.3-16.3-48.4c3.5,0.2,5.2,0.4,8.7,0.6c19.6,6.7,37,31.1,50,45.5c0.5,0.5,1.5,1.9,2.4,1.9c1,0.1-0.8-4.4-1.4-5.8
				c-5.4-13.4-14.2-26.5-20.1-38.7c-0.6-1.3,2-1,4.1-0.9c3.4,0.2,5,0.3,8.4,0.4c14,4.6,20.6,37.7,24.4,48.9c1.7,4.9,14.2,32,7.6,36
				C205.1,581.3,203.2,581.2,199.4,581z"/>
			<path class="st19" d="M243.1,499.3c1.3,0,5.3-0.1,5.7,1.9c0.2,0.8-3.7,14.8-5.1,14.7c-1.8-0.1-6.2-4.9-16.7-5.3
				c-7.4-0.3-14.1,3.6-11.2,13.3c1.8,6.1,2.7,8,5.7,8.2c6.7,0.3,6-4.4,19.7-3.9c1.1,0,3.5,0.1,3.9,1.8c0.1,0.5-0.1,16.2-1.8,16.1
				c-1,0-4-1.5-7.9-1.7c-8.8-0.3-11.6,4.7-9.2,13c2.6,8.8,10.4,23.3,10.7,24.3c0.3,1.2-1.9,0.8-2.7,0.8c-4.3-0.2-6.4-0.3-10.7-0.5
				c-10.2-4.3-14-27.2-17.1-36.5c-2.6-7.8-18.5-42.4-8.6-48.1C212.9,498.2,228,498.8,243.1,499.3z"/>
			<path class="st19" d="M269.7,583.9c-9.4-4-10.8-27.6-12.6-36.2c-1.8-8.5-13.1-42.1-2.6-48c4.8,0.1,7.2,0.2,12,0.3
				c1.4,0,4.4,0,4.5,1.7c0.3,10.9-1.3,25.3,0.6,37.3c2.4,14.6,8.7,30.6,12.2,44.2c0.2,0.9-0.4,1.1-1.2,1.1c-0.7,0-1.1,0-1.8,0
				C276.3,584.1,274.1,584,269.7,583.9z"/>
			<path class="st19" d="M280.7,547.1c-3.5-22.8,7.4-48.2,33.7-47.9c9.6,0.1,24.1,3.6,24.7,14.8c0.3,5.6-4.1,9.2-10.8,9.2
				c-4.3,0,1-9.3-12.5-9.6c-17.1-0.3-20.5,18.8-19.2,31.9c1,10.2,5.8,22.7,17.9,22.9c5.8,0.1,12.1-2.5,11.7-9.6
				c-0.4-8.2-8.2-9-8.4-11.6c-0.1-1.3,17.7-7.8,18.2-7.5c3.5,2.3,4.4,19,4.6,27.7c0.4,12.1-11.6,19.1-22.7,19
				C296.6,586.1,283.7,566.3,280.7,547.1z"/>
			<path class="st19" d="M380.9,500.7c11.4-0.3,25.4,4.8,23.2,18.5c-1.8,11.6-17.9,20.7-18.3,24.2c-0.7,5.5,14.7,23.7,12.3,39.7
				c-0.2,1.1-0.6,1.3-2.5,1.4c-4.1,0.1-6.1,0.1-10.2,0.2c-1.6,0-4.5,0.4-4.3-1.2c0.9-9.6-2.9-29.8-10.4-31.8
				c-2.1-0.5-10.3,4.2-10.5,9.9c-0.3,7.7,2.5,21.5,2.5,22.2c-0.1,1.7-2.3,1.2-3.2,1.2c-4.2,0-6.3,0-10.5,0c-8.4-3.6-5-28.6-5-36
				c0-10.2-4.2-42.2,7.6-48.1C361.3,500.8,371.1,500.8,380.9,500.7z M386.7,521.2c1.2-5.6-5.8-8.3-11.4-8.6
				c-11.7-0.5-14.6,11.3-14.8,20.9c0,2.1,0.2,6.5,2.9,6.1C371.8,538.7,384.9,529.8,386.7,521.2z"/>
			<path class="st19" d="M403.4,584.3c-4.8,0.3-3.2-3.8-0.3-23.8c2.8-18.7,7.2-44.3,18.2-60.5c14.6-0.4,29.1-0.8,43.7-1.3
				c1.3,0,5.4-0.5,4.8,1.5c-0.2,0.8-11,15.3-12.3,15.3c-1.8,0.1-3.9-4.6-14.4-4.2c-7.4,0.2-16.1,4.6-17.9,14.3
				c-0.4,2.1-0.7,5.8,2.2,5.7c3.3-0.1,11.7-5.1,20.4-5.4c1.3,0,4.6,0.2,4.2,2c0,0.1-9.8,16.8-11,16.9c-1,0-4.3-1.9-8.2-1.8
				c-5.1,0.2-13.2,4.1-15.1,14.1c-1.5,8.1,1.4,13.9,9.2,13.7c9.3-0.3,16.7-7.2,18.9-7.3c1.4-0.1,3,16.9,2.8,17.9
				c-0.5,1.9-2.7,1.6-3.8,1.7C431,583.6,417.2,584,403.4,584.3z"/>
			<path class="st19" d="M452.9,582.7c-4.9,0.4-2.7-3.8,2.9-23.8c5.4-19.5,13.2-44.6,26.2-60.9c14.5-0.6,29.1-1.3,43.6-2.1
				c1.3-0.1,5.4-0.6,4.6,1.4c-0.3,0.8-12.9,15.5-14.3,15.6c-1.8,0.1-3.2-4.5-13.8-4c-7.4,0.4-16.6,4.9-19.7,14.7
				c-0.7,2.1-1.4,5.8,1.5,5.7c3.3-0.2,12.3-5.3,21.1-5.7c1.3-0.1,4.5,0.2,3.9,1.9c0,0.1-11.9,17-13.1,17.1c-1,0.1-4.1-1.8-8-1.6
				c-5.1,0.2-13.7,4.3-16.9,14.4c-2.6,8.1-0.5,13.9,7.4,13.5c9.3-0.4,17.5-7.5,19.8-7.6c1.4-0.1,0.8,16.8,0.4,17.9
				c-0.8,1.9-2.9,1.7-4,1.7C480.6,581.5,466.8,582.2,452.9,582.7z"/>
			<path class="st19" d="M539.2,577.8c-4.6-4.1,3.8-30.1,3.7-37.8c0-2.7-1-19.3-4.4-19.1c-2.6,0.2-6.8,11.3-7.7,13.3
				c-6.2,14.5-10.3,30.3-15.9,44.3c-0.5,1.3-2.1,1-2.9,1.1c-3.4,0.2-5,0.3-8.4,0.5c-6.6-3.7,7.7-30.6,9.9-36.1
				c5.3-13,12.8-42.8,27.5-49.1c3.5-0.2,5.2-0.3,8.7-0.5c12.1,6.1,10.3,30.4,10.8,41.6c0,0.5-0.2,1.8,0.7,1.7c1-0.1,3.1-4.5,3.8-5.9
				c6.1-12.3,9.7-26.6,14.4-38.3c0.5-1.4,3-1.3,5.1-1.5c3.4-0.2,5-0.4,8.4-0.6c8.1,7-15.6,41.8-19.3,48.6
				c-5.6,10.1-13.3,32.2-25.1,37.2C544.9,577.4,543,577.5,539.2,577.8z"/>
		</g>
	</g>
	<ellipse transform="matrix(0.866 -0.5 0.5 0.866 -255.2098 330.6871)" class="st20" cx="489.5" cy="641.6" rx="62.6" ry="15.2"/>
	<ellipse transform="matrix(0.866 -0.5 0.5 0.866 -251.8992 334.9315)" class="st21" cx="499" cy="637.5" rx="31.6" ry="10.3"/>
	<ellipse class="st22" cx="348.2" cy="714" rx="327.7" ry="6.6"/>
	<g class="st23">
		<path class="st24" d="M48.2,492.8c1.9,3.6,3.9,7.1,5.9,10.6c2,3.5,4.1,6.9,6.3,10.4c4.3,6.8,8.8,13.6,13.5,20.1
			c4.7,6.6,9.5,13,14.5,19.4c5,6.3,10.2,12.5,15.5,18.5c10.7,12,22,23.6,34,34.2c12,10.7,24.6,20.7,38,29.7
			c3.3,2.3,6.7,4.4,10.1,6.6c3.4,2.1,6.8,4.2,10.3,6.2c7,4,14,7.8,21.3,11.3c7.2,3.5,14.6,6.8,22.1,9.6c7.5,2.9,15.1,5.6,22.8,7.9
			c3.8,1.2,7.7,2.2,11.6,3.3c1.9,0.5,3.9,0.9,5.9,1.4c2,0.5,3.9,1,5.9,1.3l5.9,1.2l5.9,1.1c4,0.8,8,1.2,11.9,1.9
			c16,2.2,32.1,3.1,48.3,3c-16.2,1.1-32.4,0.9-48.6-0.6c-16.2-1.7-32.3-4.5-48-8.9c-3.9-1-7.8-2.3-11.7-3.5c-1.9-0.6-3.9-1.3-5.8-2
			l-2.9-1l-2.9-1.1c-7.7-2.8-15.2-6-22.6-9.5c-7.4-3.4-14.6-7.3-21.7-11.3c-3.6-2-7-4.1-10.5-6.3c-3.4-2.2-6.9-4.4-10.2-6.7
			c-13.5-9.2-26.3-19.4-38.3-30.3c-12-11-23.3-22.7-33.8-35.2c-10.5-12.4-20.3-25.5-29.2-39c-4.4-6.8-8.7-13.7-12.7-20.8
			C55.3,507.4,51.5,500.3,48.2,492.8z"/>
	</g>
</g>
</svg>
